<?xml version='1.0' encoding='utf-8'?>
<svg xmlns:xlink="http://www.w3.org/1999/xlink" xmlns="http://www.w3.org/2000/svg" width="297.68008mm" height="182.29968mm" viewBox="0 0 1054.7719 645.94367" id="svg10472" version="1.1"> <title id="title8632">hydroelectric power plant</title> <defs id="defs10474"> <filter style="color-interpolation-filters:sRGB" id="filter9356" x="-0.17551355" width="1.3510271" y="-0.22087815" height="1.4417562"> <feGaussianBlur stdDeviation="2.3214323" id="feGaussianBlur9358"/> </filter> <filter style="color-interpolation-filters:sRGB" id="filter8557" x="-0.051231068" width="1.1024621" y="-0.064640559" height="1.129281"> <feGaussianBlur stdDeviation="42.334131" id="feGaussianBlur8559"/> </filter> <linearGradient id="linearGradient5159"> <stop offset="0" style="stop-color:#ffffff" id="stop5161"/> <stop offset="0.5" style="stop-color:#311a14" id="stop5167"/> <stop offset="1" style="stop-color:#000000" id="stop5163"/> </linearGradient> <linearGradient id="linearGradient5137"> <stop offset="0" style="stop-color:#ffffff" id="stop5139"/> </linearGradient> <radialGradient r="15.5" gradientTransform="matrix(0.76882,0,0,1.0168,5.0545,-23.29)" cx="25" cy="1029.4" gradientUnits="userSpaceOnUse" id="radialGradient5133"> <stop offset="0" style="stop-color:#ffffff;stop-opacity:.28829" id="stop4977"/> <stop offset="1" style="stop-color:#729fcf;stop-opacity:.79279" id="stop4985"/> </radialGradient> <linearGradient x1="7" y1="1006.4" gradientTransform="matrix(0.76882,0,0,0.76882,5.0545,232)" x2="35" gradientUnits="userSpaceOnUse" y2="1049.4" id="linearGradient5135"> <stop offset="0" style="stop-color:#729fcf" id="stop4969"/> <stop offset="1" style="stop-color:#3465a4" id="stop4971"/> </linearGradient> <linearGradient x1="5" y1="1007.4" gradientTransform="matrix(0.84274,0,0,0.84274,6.5773,159.55)" x2="50" gradientUnits="userSpaceOnUse" xlink:href="#linearGradient5137" y2="1047.4" id="linearGradient5143"/> <linearGradient x1="24" y1="1025.8" gradientTransform="matrix(0.84274,0,0,0.84274,6.797,160.76)" x2="21" gradientUnits="userSpaceOnUse" xlink:href="#linearGradient5159" y2="1035.4" id="linearGradient5165"/> <linearGradient x1="24.464001" y1="1025.8" gradientTransform="matrix(-0.84274,0,0,0.84274,42.045,160.79)" x2="21" gradientUnits="userSpaceOnUse" xlink:href="#linearGradient5159" y2="1035.4" id="linearGradient5171"/> <linearGradient x1="20.466999" y1="1035.7" gradientTransform="matrix(0.84274,0,0,0.84274,6.797,160.76)" x2="23" gradientUnits="userSpaceOnUse" spreadMethod="reflect" xlink:href="#linearGradient5137" y2="1035.7" id="linearGradient5183"/> <linearGradient x1="20.601" y1="1045.1" gradientTransform="matrix(0.79273,0,0,0.79273,7.8353,213.04)" x2="25.655001" gradientUnits="userSpaceOnUse" spreadMethod="reflect" y2="1045.1" id="linearGradient3837"> <stop offset="0" style="stop-color:#ffeca9" id="stop3833"/> <stop offset="1" style="stop-color:#ffd543" id="stop3839"/> </linearGradient> <linearGradient xlink:href="#linearGradient5135" id="linearGradient9329" gradientUnits="userSpaceOnUse" gradientTransform="matrix(0.76882,0,0,0.76882,5.0545,232)" x1="7" y1="1006.4" x2="35" y2="1049.4"/> <linearGradient xlink:href="#linearGradient5135" id="linearGradient9331" gradientUnits="userSpaceOnUse" gradientTransform="matrix(0.76882,0,0,0.76882,5.0545,232)" x1="7" y1="1006.4" x2="35" y2="1049.4"/> <marker orient="auto" style="overflow:visible" refX="0.0" refY="0.0" id="Arrow2Send"> <path d="m8.7186 4.0337l-10.926-4.0177 10.926-4.0177c-1.7455 2.3721-1.7355 5.6174 0 8.0354z" transform="scale(.3) rotate(180) translate(-2.3)" style="stroke-linejoin:round;stroke-width:.625;fill-rule:evenodd" id="path3794"/> </marker> </defs> <metadata id="metadata10477"> </metadata> <g id="layer1" transform="translate(1658.3441,492.23982)"> <g transform="matrix(4.3398863,0,0,4.3398863,-3128.582,-3171.8814)" id="g26629"> <g transform="matrix(-0.17953121,0,0,0.17953121,816.13974,761.18739)" id="g22382" style="overflow:visible"> <g id="g9537" transform="matrix(1.4136039,0.56503466,-0.56503466,1.4136039,1831.8519,-926.90271)"> <g id="g10624" transform="matrix(0.29826104,0.17323947,0.04674449,0.51244488,64.517985,229.57802)"> <g id="g399" transform="matrix(-0.41686972,0.22954282,0.12407762,0.1797481,1391.5856,68.647404)"> <linearGradient id="path476_1_" gradientUnits="userSpaceOnUse" x1="100.7382" y1="772.48383" x2="1470.0736" y2="772.48383" gradientTransform="matrix(0.29744526,-0.13061669,-0.13061669,-0.29744526,1650.6374,-1112.3655)"> <stop offset="0" style="stop-color:#BA8B01" id="stop11027"/> <stop offset="0.0438" style="stop-color:#CDAA37" id="stop11029"/> <stop offset="0.1121" style="stop-color:#E8D886" id="stop11031"/> <stop offset="0.1607" style="stop-color:#F8F4B8" id="stop11033"/> <stop offset="0.1847" style="stop-color:#FFFFCB" id="stop11035"/> <stop offset="0.2986" style="stop-color:#FFFFCB" id="stop11037"/> <stop offset="0.3078" style="stop-color:#FDF9C1" id="stop11039"/> <stop offset="0.3415" style="stop-color:#F5E6A0" id="stop11041"/> <stop offset="0.374" style="stop-color:#F0D989" id="stop11043"/> <stop offset="0.4043" style="stop-color:#EDD17B" id="stop11045"/> <stop offset="0.4303" style="stop-color:#ECCE76" id="stop11047"/> <stop offset="0.4892" style="stop-color:#A26F14" id="stop11049"/> <stop offset="0.6051" style="stop-color:#A26F14" id="stop11051"/> <stop offset="0.6074" style="stop-color:#A67418" id="stop11053"/> <stop offset="0.624" style="stop-color:#C19234" id="stop11055"/> <stop offset="0.6402" style="stop-color:#D4A848" id="stop11057"/> <stop offset="0.6558" style="stop-color:#E0B654" id="stop11059"/> <stop offset="0.6699" style="stop-color:#E4BA58" id="stop11061"/> <stop offset="0.6716" style="stop-color:#D9A94D" id="stop11063"/> <stop offset="0.6756" style="stop-color:#C38737" id="stop11065"/> <stop offset="0.6793" style="stop-color:#B36F27" id="stop11067"/> <stop offset="0.6828" style="stop-color:#A9601D" id="stop11069"/> <stop offset="0.6857" style="stop-color:#A65B1A" id="stop11071"/> <stop offset="0.6954" style="stop-color:#AA6222" id="stop11073"/> <stop offset="0.7104" style="stop-color:#B57637" id="stop11075"/> <stop offset="0.7287" style="stop-color:#C6965B" id="stop11077"/> <stop offset="0.7498" style="stop-color:#DEC38B" id="stop11079"/> <stop offset="0.7728" style="stop-color:#FDFCC9" id="stop11081"/> <stop offset="0.7741" style="stop-color:#FFFFCD" id="stop11083"/> <stop offset="0.7957" style="stop-color:#FFFFCD" id="stop11085"/> <stop offset="0.8468" style="stop-color:#E5BD5D" id="stop11087"/> <stop offset="0.8861" style="stop-color:#BB913B" id="stop11089"/> <stop offset="0.9116" style="stop-color:#BB913B" id="stop11091"/> <stop offset="0.9147" style="stop-color:#BE9337" id="stop11093"/> <stop offset="0.925" style="stop-color:#C39830" id="stop11095"/> <stop offset="0.9509" style="stop-color:#C5992E" id="stop11097"/> <stop offset="1" style="stop-color:#7F470A" id="stop11099"/> </linearGradient> <g id="g8561"> <g id="g9611"> <g style="stroke:#000000;stroke-width:8.26444912;stroke-miterlimit:4;stroke-dasharray:none;stroke-opacity:1" id="g8373" transform="matrix(3.335235,-2.2271188e-8,1.0961687e-8,3.335235,-3409.7814,-6913.9382)"/> <g id="g9499"> <path id="path8879" d="m -1886.2212,-1200.8654 c 32.2068,171.9303 237.5059,271.32245 396.978,343.1969 201.5083,90.82027 443.9763,30.16453 657.14258,88.59464 225.88588,61.91663 412.88154,264.5746 646.8971,274.31191 158.486219,6.59456 294.14874,-133.39067 452.02784,-148.73848 552.33426,-53.69375 1097.27228,191.35864 1652.01638,206.02761 498.219,13.17429 1344.7014,369.951569 1491.3912,-106.36535 67.2173,-218.26143 -326.2884,-338.07277 -537.5747,-424.75802 -265.5217,-108.93661 -574.7443,-36.37651 -855.7992,-94.48931 -183.0215,-37.8427 -352.0587,-131.4204 -535.9963,-164.5247 -239.0828,-43.0291 -506.33164,57.9332 -727.5332,-42.4757 -255.78441,-116.107 -335.05893,-484.7154 -590.79204,-600.9353 -499.10128,-226.8204 -1163.87066,-365.9004 -1641.79086,-97.308 -252.43,141.8663 -460.2819,482.8509 -406.9668,767.4638 z" style="overflow:visible;opacity:1;fill:#0088aa;fill-opacity:1;stroke:none;stroke-width:2;stroke-linecap:round;stroke-miterlimit:4;stroke-dasharray:none;stroke-dashoffset:0;stroke-opacity:1"/> <path transform="matrix(-48.73935,3.2545929e-7,2.2574087e-7,-28.794117,-3829.6241,-507.48378)" style="overflow:visible;opacity:1;fill:#afdde9;fill-opacity:0.35523113;stroke:none;stroke-width:2;stroke-linecap:round;stroke-miterlimit:4;stroke-dasharray:none;stroke-dashoffset:0;stroke-opacity:1;filter:url(#filter9356)" d="m -50.748423,26.900234 c 0,-5.91907 -3.936307,-12.009191 -13.891108,-12.009191 -3.261377,0 -4.745063,6.771426 -6.887124,8.094781 -4.396215,2.715958 -10.9654,5.359956 -10.9654,9.33983 0,5.91907 4.625249,7.78942 14.580049,7.78942 9.954801,0 17.163583,-7.29577 17.163583,-13.21484 z" id="path8882"/> <path transform="matrix(3.335235,-2.2271189e-8,1.0961687e-8,3.335235,-3409.7814,-6913.9382)" id="path9242" d="m 1926.8105,1294.3092 c 76.532,-100.6493 138.1496,-16.1519 205.1354,-33.9433 31.4407,-8.3506 59.0698,-31.3786 91.4993,-33.9432 30.0067,-2.373 62.1667,32.2037 88.5477,17.7095 26.7101,-14.675 25.3534,-83.3893 32.9431,-85.2868" style="overflow:visible;fill:none;fill-rule:evenodd;stroke:#0016aa;stroke-width:12.39667416;stroke-linecap:round;stroke-linejoin:miter;stroke-miterlimit:4;stroke-dasharray:none;stroke-opacity:1"/> <path transform="matrix(3.335235,-2.2271189e-8,1.0961687e-8,3.335235,-3409.7814,-6913.9382)" style="overflow:visible;fill:none;fill-rule:evenodd;stroke:#c80000;stroke-width:12.39667416;stroke-linecap:round;stroke-linejoin:miter;stroke-miterlimit:4;stroke-dasharray:none;stroke-opacity:1" d="m 1881.9381,1220.2176 c 76.532,-100.6493 138.1496,-16.1519 205.1354,-33.9433 31.4407,-8.3506 62.5924,-19.0221 91.4993,-33.9432 20.886,-10.7809 35.6095,-33.4986 58.2849,-39.6854 22.0503,-6.0163 60.834,6.3555 68.4237,4.458" id="path8307"/> <path transform="matrix(3.335235,-2.2271189e-8,1.0961687e-8,3.335235,-3409.7814,-6913.9382)" style="overflow:visible;opacity:1;fill:#6f917c;stroke:#000000;stroke-width:8.04927921;stroke-miterlimit:4;stroke-dasharray:none;stroke-opacity:1" d="m 1808.0942,1100.4482 c -4.3312,0 -8.6633,0.1948 -12.9898,0.5771 -21.3634,1.9347 -42.3747,8.1187 -61.4386,18.0058 l -150.8908,67.7056 147.6612,284.3677 146.6145,-66.2637 -0.1654,-0.3632 c 37.2556,-17.4332 69.0672,-48.9465 85.9777,-94.0243 15.3734,-48.4153 5.9361,-103.8482 -24.4423,-144.5391 -12.1923,-15.8933 -27.1794,-29.7499 -44.1147,-40.4546 -25.7554,-15.9156 -55.8927,-25.0306 -86.2118,-25.0113 z" id="path8292"/> <path transform="matrix(3.335235,-2.2271189e-8,1.0961687e-8,3.335235,-3409.7814,-6913.9382)" style="overflow:visible;opacity:1;fill:#999999;stroke:#000000;stroke-width:7.9724741;stroke-miterlimit:4;stroke-dasharray:none;stroke-opacity:1" d="m 1741.1264,1198.3041 c 16.7737,10.6025 31.6194,24.3259 43.6954,40.0676 30.0885,40.3026 39.4336,95.2093 24.2069,143.1627 -44.2927,118.0698 -191.7681,142.255 -269.3621,62.7374 -22.7915,-22.8355 -37.0117,-53.5109 -41.98,-85.2319 -7.8515,-48.773 7.8987,-101.4107 43.1515,-136.3931 26.5921,-27.8923 63.7568,-45.0779 102.0323,-48.5442 34.2821,-3.0291 69.1022,6.1857 98.256,24.2015" id="path8275"/> <path transform="matrix(3.335235,-2.2271189e-8,1.0961687e-8,3.335235,-3409.7814,-6913.9382)" style="overflow:visible;opacity:1;fill:#333333;stroke:#000000;stroke-width:4.13222504;stroke-miterlimit:4;stroke-dasharray:none;stroke-opacity:1" d="m 1687.9339,1258.4593 c 8.694,5.4954 16.3887,12.6083 22.6478,20.7674 15.5952,20.8892 20.4389,49.3481 12.5467,74.2029 -22.9574,61.1969 -99.3956,73.7324 -139.6135,32.5175 -11.8131,-11.8359 -19.1836,-27.7353 -21.7587,-44.1767 -4.0695,-25.2796 4.094,-52.5623 22.3659,-70.6941 13.783,-14.4568 33.0459,-23.3643 52.8846,-25.1609 17.7688,-1.57 35.8164,3.2061 50.9272,12.5439" id="path8245"/> <g id="g8236" transform="matrix(6.6582894,-4.4461042e-8,2.188334e-8,6.6582894,-7307.8987,-10071.793)" style="overflow:visible;stroke:#000000;stroke-width:2.06989217;stroke-miterlimit:4;stroke-dasharray:none;stroke-opacity:1"> <path id="path8230" d="m 1253.5821,946.19159 c 8.694,5.4954 16.3887,12.60837 22.6478,20.76747 15.5952,20.8892 20.4389,49.34804 12.5467,74.20284 -22.9574,61.1969 -99.3956,73.7324 -139.6135,32.5175 -11.8131,-11.8359 -19.1836,-27.7353 -21.7587,-44.1767 -4.0695,-25.2796 4.094,-52.56224 22.3659,-70.69404 13.783,-14.45687 33.0459,-23.36437 52.8846,-25.16097 17.7688,-1.57 35.8164,3.2061 50.9272,12.5439" style="opacity:1;fill:#333333;stroke:#000000;stroke-width:2.06989217;stroke-miterlimit:4;stroke-dasharray:none;stroke-opacity:1"/> <path id="path8253" d="m 1246.2274,955.63117 c 8.694,5.4954 15.3937,13.53628 22.6478,20.7675 59.6944,59.50603 200.0553,141.06803 171.4848,185.82913 -25.7894,40.404 -218.8943,-13.8881 -298.5516,-79.1088 -12.7007,-10.3989 -20.5185,-27.8088 -21.7587,-44.1767 -1.8673,-24.6453 6.1325,-52.05662 22.3659,-70.69403 12.8218,-14.72061 33.463,-23.18705 52.8846,-25.16097 17.3935,-1.76779 35.8164,3.2061 50.9272,12.54387" style="opacity:1;fill:none;fill-opacity:1;stroke:#000000;stroke-width:10.3494606;stroke-miterlimit:4;stroke-dasharray:none;stroke-opacity:1"/> <path style="opacity:1;fill:#c87137;fill-opacity:1;stroke:#000000;stroke-width:2.06989217;stroke-miterlimit:4;stroke-dasharray:none;stroke-opacity:1" d="m 1232.921,958.58816 c 8.694,5.4954 16.3887,12.6084 22.6478,20.7675 15.5952,20.88924 20.4389,49.34804 12.5467,74.20284 -22.9574,61.1969 -99.3956,73.7324 -139.6135,32.5175 -11.8131,-11.8359 -19.1836,-27.7353 -21.7587,-44.1767 -4.0695,-25.2796 4.094,-52.56224 22.3659,-70.69404 13.783,-14.4569 33.0459,-23.36437 52.8846,-25.16097 17.7688,-1.57 35.8164,3.2061 50.9272,12.54387" id="path8232"/> <path style="opacity:1;fill:#d38d5f;stroke:#000000;stroke-width:1.67675388;stroke-miterlimit:4;stroke-dasharray:none;stroke-opacity:1" d="m 1206.2046,1000.7084 c 3.542,2.2389 6.677,5.1369 9.227,8.4611 6.3538,8.5106 8.3272,20.1053 5.1118,30.2316 -9.3533,24.9327 -40.4955,30.0399 -56.881,13.2482 -4.8129,-4.8221 -7.8158,-11.2999 -8.8649,-17.9984 -1.6581,-10.2994 1.6679,-21.4148 9.1122,-28.8021 5.6155,-5.88988 13.4635,-9.51898 21.5462,-10.25098 7.2393,-0.6396 14.5922,1.3063 20.7487,5.11058" id="path8234"/> </g> <rect style="overflow:visible;opacity:1;fill:#a05a2c;fill-opacity:1;stroke:#000000;stroke-width:4.13222504;stroke-linecap:square;stroke-linejoin:round;stroke-miterlimit:4;stroke-dasharray:none;stroke-dashoffset:0;stroke-opacity:1" id="rect8241" width="56.351395" height="459.15948" x="1603.0342" y="-175.1627" ry="26.08857" transform="matrix(2.2323099,2.4780204,-2.4780204,2.2323099,-3409.7814,-6913.9382)"/> <g style="overflow:visible;stroke:#000000;stroke-width:8.26444912;stroke-miterlimit:4;stroke-dasharray:none;stroke-opacity:1" id="g8197" transform="matrix(1.0210326,0.67932142,-0.67932142,1.0210326,598.99598,-3266.631)"> <path style="opacity:1;fill:#784421;stroke:#000000;stroke-width:11.96117592;stroke-miterlimit:4;stroke-dasharray:none;stroke-opacity:1" d="m -233.86482,847.73476 c 29.76359,-0.69633 59.7124,4.10776 87.87892,13.73502 71.077445,25.33648 128.381441,86.15413 149.2140244,158.70732 42.7972826,184.2914 -121.3152144,337.0627 -284.3224544,302.2227 -47.44672,-9.5826 -90.70261,-36.0816 -123.27073,-71.5756 -50.34064,-54.3973 -74.41216,-133.2366 -59.4505,-206.2305 10.03619,-56.94002 42.17625,-109.29307 87.10594,-145.43229 40.30444,-32.27418 91.45642,-49.70177 142.8448,-51.42665" id="path8359"/> <path id="path8175" d="m -244.32225,894.63474 c 27.96405,-0.65423 56.10212,3.8594 82.56566,12.90459 66.780014,23.8046 120.619344,80.94515 140.192366,149.11167 40.20971,173.1489 -113.980356,316.6835 -267.131986,283.95 -44.57804,-9.0033 -85.21863,-33.9001 -115.81764,-67.2481 -47.29699,-51.1084 -69.91312,-125.181 -55.85606,-193.7616 9.42939,-53.4973 39.62623,-102.68502 81.83942,-136.63922 37.86758,-30.32285 85.92686,-46.69675 134.20824,-48.31734" style="opacity:1;fill:#c87137;stroke:#000000;stroke-width:11.23798943;stroke-miterlimit:4;stroke-dasharray:none;stroke-opacity:1"/> <path style="opacity:1;fill:#808080;stroke:#000000;stroke-width:11.23798943;stroke-miterlimit:4;stroke-dasharray:none;stroke-opacity:1" d="m -242.09334,1005.6996 c 14.06432,-0.329 28.21617,1.9411 41.52583,6.4903 33.58654,11.9724 60.66465,40.7109 70.50877,74.9947 20.2232,87.084 -57.32563,159.2737 -134.35217,142.8106 -22.42021,-4.5281 -42.86012,-17.0497 -58.24967,-33.8219 -23.78769,-25.7046 -35.16232,-62.9589 -28.09242,-97.451 4.74245,-26.9061 19.92974,-51.6447 41.16057,-68.7218 19.04523,-15.2506 43.21631,-23.4858 67.49909,-24.3009" id="path8240"/> <g id="g8242"> <path style="opacity:1;fill:#808080;stroke:#000000;stroke-width:8.26444912;stroke-miterlimit:4;stroke-dasharray:none;stroke-opacity:1" d="m -622.0488,424.36178 376.96926,563.39189 c -41.64,18.15003 -79.87,44.02983 -112.79,75.29973 -3.14,3.2199 -4.15,-3.92 -6.13,-5.01 -122.39,-186.75973 -241.74926,-375.97162 -363.46926,-563.01162 z" id="path8173"/> <path style="opacity:1;fill:#808080;stroke:#000000;stroke-width:8.26444912;stroke-miterlimit:4;stroke-dasharray:none;stroke-opacity:1" d="m -120.40146,1172.2601 c 124.0600002,185.04 246.89,374.84 370.68,561.56 1.43,2.2 3.74,5.98 -0.95,6.97 -33.53,24.62 -67.91,48.37 -104.09,68.91 -126.67,-186.98 -254.02,-373.53 -380.12,-560.88 42.07,-18.97 80.88,-44.85 114.48,-76.56 z" id="path8183"/> </g> <g id="g8246" transform="matrix(0.51048163,0.85988866,-0.85988866,0.51048163,844.04342,753.89739)"> <path id="path8248" d="m -626.46954,427.45367 c 3.03,-1.86 3.92,3.11 5.55,4.37 124.82,185.57 252.2,369.8 375.84,555.93 -41.64,18.15003 -79.87,44.02983 -112.79,75.29973 -3.14,3.2199 -4.15,-3.92 -6.13,-5.01 -122.39,-186.75973 -246.17,-372.87973 -367.89,-559.91973 33.43,-25.92 68.79,-49.52 105.42,-70.67 z" style="opacity:1;fill:#808080;stroke:#000000;stroke-width:8.26444912;stroke-miterlimit:4;stroke-dasharray:none;stroke-opacity:1"/> <path id="path8250" d="m -120.40146,1172.2601 c 124.0600002,185.04 246.89,374.84 370.68,561.56 1.43,2.2 3.74,5.98 -0.95,6.97 -33.53,24.62 -67.91,48.37 -104.09,68.91 -126.67,-186.98 -254.02,-373.53 -380.12,-560.88 42.07,-18.97 80.88,-44.85 114.48,-76.56 z" style="opacity:1;fill:#808080;stroke:#000000;stroke-width:8.26444912;stroke-miterlimit:4;stroke-dasharray:none;stroke-opacity:1"/> </g> <g transform="matrix(-0.49508767,0.86884303,-0.86884302,-0.49508767,612.2134,1881.3528)" id="g8252"> <path style="opacity:1;fill:#808080;stroke:#000000;stroke-width:8.26444912;stroke-miterlimit:4;stroke-dasharray:none;stroke-opacity:1" d="m -626.46954,427.45367 c 3.03,-1.86 3.92,3.11 5.55,4.37 124.82,185.57 252.2,369.8 375.84,555.93 -41.64,18.15003 -79.87,44.02983 -112.79,75.29973 -3.14,3.2199 -4.15,-3.92 -6.13,-5.01 -122.39,-186.75973 -246.17,-372.87973 -367.89,-559.91973 33.43,-25.92 68.79,-49.52 105.42,-70.67 z" id="path8254"/> <path style="opacity:1;fill:#808080;stroke:#000000;stroke-width:8.26444912;stroke-miterlimit:4;stroke-dasharray:none;stroke-opacity:1" d="m -120.40146,1172.2601 c 124.0600002,185.04 246.89,374.84 370.68,561.56 1.43,2.2 3.74,5.98 -0.95,6.97 -33.53,24.62 -67.91,48.37 -104.09,68.91 -126.67,-186.98 -254.02,-373.53 -380.12,-560.88 42.07,-18.97 80.88,-44.85 114.48,-76.56 z" id="path8256"/> </g> </g> <path transform="matrix(3.335235,-2.2271189e-8,1.0961687e-8,3.335235,-3409.7814,-6913.9382)" id="path8367" d="m 927.22513,1677.55 -0.80897,-2.4683 c 0,0 -1.88633,-164.5769 -1.82588,-246.7408 16.44427,2.9248 -161.72377,112.361 -145.27674,109.4933 l 0.85617,2.7823 -1.42052,246.343 z" style="overflow:visible;opacity:1;fill:#c87137;stroke:#000000;stroke-width:3.03884983;stroke-miterlimit:4;stroke-dasharray:none;stroke-opacity:1"/> <path transform="matrix(3.335235,-2.2271189e-8,1.0961687e-8,3.335235,-3409.7814,-6913.9382)" style="overflow:visible;opacity:1;fill:#d38d5f;stroke:#000000;stroke-width:3.03884983;stroke-miterlimit:4;stroke-dasharray:none;stroke-opacity:1" d="M 1017.7486,1620.3816 778.32266,1485.6188 921.26744,1369.6537 1164.9913,1508.0785 Z" id="path8363"/> <path transform="matrix(3.335235,-2.2271189e-8,1.0961687e-8,3.335235,-3409.7814,-6913.9382)" id="path8355" d="m 513.97432,1333.3788 248.9113,141.724 c -16.44427,-2.9248 177.89871,-130.623 161.45168,-127.7553 l -0.85617,-2.7823 -263.11796,-122.1612 z" style="overflow:visible;opacity:1;fill:#c87137;stroke:#000000;stroke-width:3.03884983;stroke-miterlimit:4;stroke-dasharray:none;stroke-opacity:1"/> <path transform="matrix(3.335235,-2.2271189e-8,1.0961687e-8,3.335235,-3409.7814,-6913.9382)" style="overflow:visible;opacity:1;fill:#c87137;stroke:#000000;stroke-width:3.03884983;stroke-miterlimit:4;stroke-dasharray:none;stroke-opacity:1" d="m 493.3132,1624.1103 269.57242,-149.0075 161.45168,-127.7553 -0.85617,-2.7823 -283.04119,168.5703 z" id="path8369"/> <path transform="matrix(3.335235,-2.2271189e-8,1.0961687e-8,3.335235,-3409.7814,-6913.9382)" id="path8266" d="m 776.42571,1207.6317 2.63485,249.2091 c -16.44427,-2.9248 -33.41902,-2.7888 -49.86604,0.079 -1.6171,0.3462 -0.47204,-2.0453 -0.85618,-2.7823 0.57139,-82.1021 0.58695,-164.2915 1.42053,-246.343 z" style="overflow:visible;opacity:1;fill:#a05a2c;stroke:#000000;stroke-width:3.03884983;stroke-miterlimit:4;stroke-dasharray:none;stroke-opacity:1"/> <path transform="matrix(3.335235,-2.2271189e-8,1.0961687e-8,3.335235,-3409.7814,-6913.9382)" id="path8268" d="m 779.64859,1538.7192 c 0.29013,81.9158 -0.76579,165.0383 -0.9005,247.4134 -0.0103,0.9648 -0.0731,2.5925 -1.71048,1.9403 -15.27932,0.7076 -30.64165,0.9758 -45.90121,-0.1053 -0.694,-83.0413 -1.68377,-166.0895 -2.12792,-249.128 16.74292,2.7614 33.89527,2.7435 50.64011,-0.1204 z" style="overflow:visible;opacity:1;fill:#a05a2c;stroke:#000000;stroke-width:3.03884983;stroke-miterlimit:4;stroke-dasharray:none;stroke-opacity:1"/> <path transform="matrix(3.335235,-2.2271189e-8,1.0961687e-8,3.335235,-3409.7814,-6913.9382)" style="overflow:visible;opacity:1;fill:#d38d5f;stroke:#000000;stroke-width:3.03884983;stroke-miterlimit:4;stroke-dasharray:none;stroke-opacity:1" d="m 776.42571,1207.6317 0.80897,2.4683 c 0,0 1.88633,164.5769 1.82588,246.7408 -16.44427,-2.9248 161.72377,-112.361 145.27674,-109.4933 l -0.85617,-2.7823 1.42052,-246.343 z" id="path8282"/> <path transform="matrix(3.335235,-2.2271189e-8,1.0961687e-8,3.335235,-3409.7814,-6913.9382)" id="path8312" d="M 993.49388,1327.482 779.06056,1456.8408 923.48113,1344.5652 1139.6298,1217.7615 Z" style="overflow:visible;opacity:1;fill:#c87137;stroke:#000000;stroke-width:3.03884983;stroke-miterlimit:4;stroke-dasharray:none;stroke-opacity:1"/> <g id="g8270" transform="matrix(-0.06292241,1.2247554,-1.2247554,-0.06292241,459.46211,-1553.9421)" style="overflow:visible;fill:#a05a2c;stroke:#000000;stroke-width:8.26444912;stroke-miterlimit:4;stroke-dasharray:none;stroke-opacity:1"> <path id="path8272" d="m -626.46954,427.45367 c 3.03,-1.86 3.92,3.11 5.55,4.37 124.82,185.57 252.2,369.8 375.84,555.93 -41.64,18.15003 -79.87,44.02983 -112.79,75.29973 -3.14,3.2199 -4.15,-3.92 -6.13,-5.01 -122.39,-186.75973 -246.17,-372.87973 -367.89,-559.91973 33.43,-25.92 68.79,-49.52 105.42,-70.67 z" style="opacity:1;fill:#a05a2c;stroke:#000000;stroke-width:8.26444912;stroke-miterlimit:4;stroke-dasharray:none;stroke-opacity:1"/> <path id="path8274" d="m -120.40146,1172.2601 c 124.0600002,185.04 246.89,374.84 370.68,561.56 1.43,2.2 3.74,5.98 -0.95,6.97 -33.53,24.62 -67.91,48.37 -104.09,68.91 -126.67,-186.98 -254.02,-373.53 -380.12,-560.88 42.07,-18.97 80.88,-44.85 114.48,-76.56 z" style="opacity:1;fill:#a05a2c;stroke:#000000;stroke-width:8.26444912;stroke-miterlimit:4;stroke-dasharray:none;stroke-opacity:1"/> </g> <g transform="matrix(-1.0957243,0.5507934,-0.55079339,-1.0957243,-543.14835,-560.26048)" id="g8276" style="overflow:visible;fill:#a05a2c;stroke:#000000;stroke-width:8.26444912;stroke-miterlimit:4;stroke-dasharray:none;stroke-opacity:1"> <path style="opacity:1;fill:#a05a2c;stroke:#000000;stroke-width:8.26444912;stroke-miterlimit:4;stroke-dasharray:none;stroke-opacity:1" d="m -626.46954,427.45367 c 3.03,-1.86 3.92,3.11 5.55,4.37 124.82,185.57 252.2,369.8 375.84,555.93 -41.64,18.15003 -79.87,44.02983 -112.79,75.29973 -3.14,3.2199 -4.15,-3.92 -6.13,-5.01 -122.39,-186.75973 -246.17,-372.87973 -367.89,-559.91973 33.43,-25.92 68.79,-49.52 105.42,-70.67 z" id="path8278"/> <path style="opacity:1;fill:#a05a2c;stroke:#000000;stroke-width:8.26444912;stroke-miterlimit:4;stroke-dasharray:none;stroke-opacity:1" d="m -120.40146,1172.2601 c 124.0600002,185.04 246.89,374.84 370.68,561.56 1.43,2.2 3.74,5.98 -0.95,6.97 -33.53,24.62 -67.91,48.37 -104.09,68.91 -126.67,-186.98 -254.02,-373.53 -380.12,-560.88 42.07,-18.97 80.88,-44.85 114.48,-76.56 z" id="path8280"/> </g> <path transform="matrix(3.335235,-2.2271189e-8,1.0961687e-8,3.335235,-3409.7814,-6913.9382)" id="path8260" d="m 798.25888,1428.4881 c 8.69403,5.4954 16.38874,12.6084 22.64784,20.7675 15.59518,20.8892 20.43889,49.348 12.54671,74.2028 -22.95741,61.1969 -99.39556,73.7324 -139.61349,32.5175 -11.81311,-11.8359 -19.18363,-27.7353 -21.75873,-44.1767 -4.0695,-25.2796 4.09403,-52.5622 22.3659,-70.694 13.78301,-14.4569 33.04589,-23.3644 52.88463,-25.161 17.76876,-1.57 35.81643,3.2061 50.92714,12.5439" style="overflow:visible;opacity:1;fill:#784421;stroke:#000000;stroke-width:4.13222504;stroke-miterlimit:4;stroke-dasharray:none;stroke-opacity:1"/> <path transform="matrix(3.335235,-2.2271189e-8,1.0961687e-8,3.335235,-3409.7814,-6913.9382)" id="path8357" d="m 777.23468,1210.1 -47.73984,-1.827 148.92651,-111.637 47.78473,0.8035 z" style="overflow:visible;opacity:1;fill:#a05a2c;stroke:#000000;stroke-width:3.03884983;stroke-linejoin:round;stroke-miterlimit:4;stroke-dasharray:none;stroke-opacity:1"/> <path transform="matrix(3.335235,-2.2271189e-8,1.0961687e-8,3.335235,-3409.7814,-6913.9382)" style="overflow:visible;opacity:1;fill:#c87137;stroke:#000000;stroke-width:3.03884983;stroke-linejoin:round;stroke-miterlimit:4;stroke-dasharray:none;stroke-opacity:1" d="m 1014.7992,1370.6726 -22.95567,-41.3512 146.83947,-112.4197 23.7832,41.7627 z" id="path8361"/> <path transform="matrix(3.335235,-2.2271189e-8,1.0961687e-8,3.335235,-3409.7814,-6913.9382)" id="path8365" d="m 994.13812,1663.2488 23.90078,-42.458 146.8395,-112.4197 -21.9664,42.1316 z" style="overflow:visible;opacity:1;fill:#a05a2c;stroke:#000000;stroke-width:3.03884983;stroke-linejoin:round;stroke-miterlimit:4;stroke-dasharray:none;stroke-opacity:1"/> <path transform="matrix(3.335235,-2.2271189e-8,1.0961687e-8,3.335235,-3409.7814,-6913.9382)" style="overflow:visible;opacity:1;fill:#a05a2c;stroke:#000000;stroke-width:4.13222504;stroke-miterlimit:4;stroke-dasharray:none;stroke-opacity:1" d="m 777.59778,1440.8847 c 8.69403,5.4954 16.38874,12.6084 22.64784,20.7675 15.59518,20.8892 20.43889,49.348 12.54671,74.2028 -22.95741,61.1969 -99.39556,73.7324 -139.61349,32.5175 -11.81311,-11.8359 -19.18363,-27.7353 -21.75873,-44.1767 -4.0695,-25.2796 4.09403,-52.5622 22.3659,-70.694 13.78301,-14.4569 33.04589,-23.3644 52.88463,-25.161 17.76876,-1.57 35.81643,3.2061 50.92714,12.5439" id="path8371"/> <path transform="matrix(3.335235,-2.2271189e-8,1.0961687e-8,3.335235,-3409.7814,-6913.9382)" style="overflow:visible;opacity:1;fill:#d38d5f;stroke:#000000;stroke-width:4.13222504;stroke-miterlimit:4;stroke-dasharray:none;stroke-opacity:1" d="m 756.57608,1474.254 c 4.37259,2.7639 8.2426,6.3414 11.39057,10.4449 7.84348,10.5061 10.27957,24.8193 6.31027,37.3198 -11.54625,30.7785 -49.99029,37.0832 -70.21761,16.3545 -5.94133,-5.9528 -9.6483,-13.9493 -10.94342,-22.2184 -2.04673,-12.7142 2.05907,-26.4358 11.24877,-35.5551 6.93207,-7.2709 16.6202,-11.7509 26.59797,-12.6545 8.93666,-0.7896 18.01362,1.6125 25.61345,6.3088" id="path8262"/> <g style="overflow:visible;stroke:#000000;stroke-width:8.26444912;stroke-miterlimit:4;stroke-dasharray:none;stroke-opacity:1" transform="matrix(3.335235,-2.2271189e-8,1.0961687e-8,3.335235,-1961.1159,-5872.4521)" id="g8243"> <path id="path8247" d="m 1232.921,958.58816 c 8.694,5.4954 16.3887,12.6084 22.6478,20.7675 15.5952,20.88924 20.4389,49.34804 12.5467,74.20284 -22.9574,61.1969 -99.3956,73.7324 -139.6135,32.5175 -11.8131,-11.8359 -19.1836,-27.7353 -21.7587,-44.1767 -4.0695,-25.2796 4.094,-52.56224 22.3659,-70.69404 13.783,-14.4569 33.0459,-23.36437 52.8846,-25.16097 17.7688,-1.57 35.8164,3.2061 50.9272,12.54387" style="opacity:1;fill:#999999;stroke:#000000;stroke-width:4.13222504;stroke-miterlimit:4;stroke-dasharray:none;stroke-opacity:1"/> <path id="path8249" d="m 1213.3902,995.52709 c 3.8522,2.435 7.2617,5.58681 10.035,9.20211 6.9102,9.2559 9.0564,21.8659 5.5594,32.8789 -10.1723,27.1159 -44.0416,32.6704 -61.8619,14.4083 -5.2343,-5.2444 -8.5002,-12.2894 -9.6412,-19.5745 -1.8033,-11.2012 1.814,-23.29 9.9101,-31.3242 6.1072,-6.40571 14.6425,-10.35261 23.433,-11.14861 7.8732,-0.6957 15.87,1.4206 22.5656,5.558" style="opacity:1;fill:#4d4d4d;stroke:#000000;stroke-width:3.64050651;stroke-miterlimit:4;stroke-dasharray:none;stroke-opacity:1"/> <path style="opacity:1;fill:#b3b3b3;stroke:#000000;stroke-width:3.64050651;stroke-miterlimit:4;stroke-dasharray:none;stroke-opacity:1" d="m 1204.52,999.70126 c 3.8522,2.43504 7.2617,5.58684 10.035,9.20214 6.9102,9.2559 9.0564,21.8659 5.5594,32.8789 -10.1723,27.1159 -44.0416,32.6704 -61.8619,14.4083 -5.2343,-5.2444 -8.5002,-12.2894 -9.6412,-19.5745 -1.8033,-11.2012 1.814,-23.29 9.9101,-31.3242 6.1072,-6.40574 14.6425,-10.35254 23.433,-11.14864 7.8732,-0.6957 15.87,1.4206 22.5656,5.558" id="path8273"/> </g> <path id="path8301" d="m 2550.8337,-2990.7859 247.542,-124.1436 c 21.768,-10.9173 48.0814,-2.1875 58.9983,19.5869 l 4.9262,9.8231 c 10.9167,21.7681 2.1878,48.0807 -19.5873,58.998 l -247.5419,124.144 c -21.768,10.9173 -48.0814,2.1876 -58.9983,-19.5866 l -4.9263,-9.8234 c -10.9169,-21.768 -2.1877,-48.0806 19.5873,-58.9984 z" style="overflow:visible;opacity:1;fill:#6f917c;fill-opacity:1;stroke:#000000;stroke-width:24.61581993;stroke-linecap:square;stroke-linejoin:round;stroke-miterlimit:4;stroke-dasharray:none;stroke-dashoffset:0;stroke-opacity:1"/> <g transform="matrix(37.11678,-2.4784905e-7,1.2198916e-7,37.11678,3477.232,-41890.418)" id="layer1-7" style="overflow:visible;stroke:#000000;stroke-width:1.55690897;stroke-miterlimit:4;stroke-dasharray:none;stroke-opacity:1"> <g id="g9417"> <path id="path3847" style="fill:#8c8c8c;stroke:#000000;stroke-width:1.55690897;stroke-linecap:round;stroke-linejoin:round;stroke-miterlimit:4;stroke-dasharray:none" d="m 21.434,1046.3 5.8715,-0.032 c -2.2965,2.7617 -4.1626,2.1569 -5.8715,0.032 z"/> <path id="rect3040" style="fill:none;stroke:#d59600;stroke-width:0.74262589;stroke-linejoin:round;stroke-miterlimit:4;stroke-dasharray:none" d="m 19.295,1038 c 3.5432,-2.6067 6.8214,-2.2105 9.9396,0 0.69168,1.0641 1.1705,1.7333 -0.21282,2.159 2.3411,1.7178 0.21282,2.8198 0.21282,2.8198 1.4898,0.9045 0,2.4141 0,2.4141 -3.4546,2.1111 -4.7396,2.2681 -7.9956,1.2237 -0.63847,-0.4256 -3.6867,-1.6751 -1.944,-2.8396 -0.9045,-0.4257 -1.3302,-2.326 0.47886,-2.6983 -1.8929,-1.7153 -1.4366,-1.7486 -0.47886,-3.0787 z"/> <path id="rect3040-1" style="fill:url(#linearGradient3837);stroke:none;stroke-width:0.74262589;stroke-miterlimit:4;stroke-dasharray:none" d="m 19.591,1038.2 c 3.3329,-2.4519 6.4166,-2.0793 9.3497,0 0.65063,1.001 1.1011,1.6306 -0.20019,2.0309 2.2021,1.6158 0.20019,2.6525 0.20019,2.6525 1.4014,0.8508 0,2.2709 0,2.2709 -3.2496,1.9859 -4.4583,2.1335 -7.5211,1.1511 -0.60058,-0.4004 -3.468,-1.5757 -1.8286,-2.6713 -0.85082,-0.4003 -1.2512,-2.1877 0.45044,-2.5381 -1.7806,-1.6134 -1.3513,-1.6447 -0.45044,-2.896 z"/> <path id="path4964-5" style="opacity:0.26000001;fill:#ffc803;stroke:url(#linearGradient9329);stroke-width:1.55690897;stroke-miterlimit:4;stroke-dasharray:none" d="m 24.275,1038.8 c -1.8954,-0.035 -3.6803,-0.067 -4.6129,-0.7687 -0.93258,-0.7022 0.0728,-2.0027 -0.76882,-3.8441 -0.84161,-1.8414 -1.8029,-5.0179 -3.3686,-7.7567 -1.5657,-2.7388 -2.7819,-3.8372 -2.7819,-8.3885 0,-4.5512 5.1632,-9.9946 11.532,-9.9946 6.3691,0 11.532,5.4375 11.532,9.9946 0,4.5572 -1.2294,5.4466 -3.1704,8.7836 -1.941,3.3371 -2.2482,5.7705 -2.9801,7.3616 -0.73186,1.591 -0.02363,3.1746 -0.76882,3.8441 -0.74518,0.6694 -3.1321,0.7208 -4.6129,0.7687 z"/> <path id="path4964" style="fill:url(#radialGradient5133);stroke:url(#linearGradient9331);stroke-width:0.74262589;stroke-miterlimit:4;stroke-dasharray:none" d="m 24.328,1039.2 c -1.8954,-0.035 -3.7335,-0.4656 -4.6661,-1.1678 -0.93258,-0.7022 0.0728,-2.0027 -0.76882,-3.8441 -0.84161,-1.8414 -1.8029,-5.0179 -3.3686,-7.7567 -1.5657,-2.7388 -2.7819,-3.8372 -2.7819,-8.3885 0,-4.5512 5.1632,-9.9946 11.532,-9.9946 6.3691,0 11.532,5.4375 11.532,9.9946 0,4.5572 -1.2294,5.4466 -3.1704,8.7836 -1.941,3.3371 -2.2482,5.7705 -2.9801,7.3616 -0.73186,1.591 -0.02363,3.1746 -0.76882,3.8441 -0.74518,0.6694 -3.0788,1.1199 -4.5597,1.1678 z"/> <path id="path4964-4" style="opacity:0.75;fill:none;stroke:url(#linearGradient5143);stroke-width:1.55690897;stroke-miterlimit:4;stroke-dasharray:none" d="m 24.275,1037.7 c -1.769,-0.032 -3.435,-0.062 -4.3054,-0.7176 -0.87041,-0.6552 0.06794,-1.8691 -0.71756,-3.5876 -0.7855,-1.7187 -1.6827,-4.6834 -3.144,-7.2396 -1.4613,-2.5563 -2.5965,-3.5816 -2.5965,-7.8292 0,-4.2479 4.8189,-9.3284 10.763,-9.3284 5.9445,0 10.763,5.0749 10.763,9.3284 0,4.2532 -1.1474,5.0835 -2.9591,8.198 -1.8116,3.1145 -2.0984,5.3858 -2.7814,6.8708 -0.68307,1.4848 -0.02206,2.9629 -0.71756,3.5876 -0.6955,0.6249 -2.9232,0.6729 -4.3054,0.7176 z"/> <path id="path5147" style="fill:none;stroke:url(#linearGradient5165);stroke-width:1.55690897;stroke-linecap:round;stroke-linejoin:round;stroke-miterlimit:4;stroke-dasharray:none" d="m 27.44,1023.6 -1.6855,5.8992"/> <path id="path5169" d="m 21.402,1023.7 1.6855,5.8992" style="fill:none;stroke:url(#linearGradient5171);stroke-width:1.55690897;stroke-linecap:round;stroke-linejoin:round;stroke-miterlimit:4;stroke-dasharray:none"/> <path id="path5173" style="fill:none;stroke:#ffffff;stroke-width:1.55690897;stroke-linecap:round;stroke-linejoin:round;stroke-miterlimit:4;stroke-dasharray:none;stroke-opacity:0.94118" d="m 27.358,1023.6 c -0.81398,0.9901 -1.5547,1.4672 -2.0203,0.019 -0.56183,1.0544 -1.1237,1.6955 -1.6855,-0.075 -1.5594,2.4362 -1.5507,0.2469 -2.2197,0.056"/> <path id="path5175" style="fill:url(#linearGradient5183);stroke:#d7d3ce;stroke-width:1.55690897;stroke-linecap:round;stroke-linejoin:round;stroke-miterlimit:4;stroke-dasharray:none" d="m 27.023,1038 0,-7.715 c -1.9959,-1.5134 -3.6269,-1.2477 -5.0564,0 l 0,7.6617"/> <path id="path3843" style="fill:none;stroke:#d59600;stroke-width:0.74262589;stroke-linecap:round;stroke-linejoin:bevel;stroke-miterlimit:4;stroke-dasharray:none" d="m 27.706,1042.6 c -2.5007,-0.7183 -5.3993,-0.4589 -6.8625,-1.4699"/> <path id="path3845" d="m 27.52,1045.1 c -2.5007,-0.7183 -5.3993,-0.4589 -6.8625,-1.4698" style="fill:none;stroke:#d59600;stroke-width:0.74262589;stroke-linecap:round;stroke-linejoin:bevel;stroke-miterlimit:4;stroke-dasharray:none"/> <ellipse ry="7.0089288" rx="4.1071429" cy="13.758928" cx="40.535713" id="path3905" style="opacity:0.30973002;fill:#ffffff;fill-opacity:0.58510999;stroke:none;stroke-width:1.3931917;stroke-miterlimit:4;stroke-dasharray:none" transform="matrix(0.68723,0.88122,-0.88122,0.68723,5.3385,970.8)"/> </g> </g> <g transform="matrix(1,0,-0.16723136,1,-640.71101,4.278378e-6)" id="g8514"> <path id="path8526" style="overflow:visible;fill:#784421;fill-rule:evenodd;stroke:#2e3436;stroke-width:11.01109314" d="m -1033.5428,-3487.8994 -529.3496,-197.4039 -277.659,-57.8279 -321.3159,-57.497 422.7693,-306.6438 1080.94913,383.3911 z"/> <path d="m -574.47509,-4114.3832 c -176.431,-52.0466 -354.895,-53.6952 -533.36501,-117.3532 -90.51,-22.7114 -191.837,-83.3307 -277.659,-57.8279 -56.067,16.6699 -335.712,-161.0615 -346.273,-81.8603 -1.763,137.1175 -76.2576,273.9505 -14.275,285.0354 367.038,54.0022 701.547,430.8071 1079.78501,376.4302 6.134,-26.4638 32.285,-71.3667 47.656,-125.1482 30.97,-108.3605 52.077,-259.4616 44.131,-279.276 z" style="overflow:visible;fill:#784421;fill-rule:evenodd;stroke:#2e3436;stroke-width:11.01109314" id="path10587"/> <path d="m -649.01731,-3734.7903 c -83.17684,-63.7111 -1041.17529,-423.5242 -1116.61059,-367.6897 l -284.9179,210.8858 c -153.4853,113.6043 942.2419,120.6767 891.214,104.9613 -94.4875,-23.5392 -205.3048,-71.8873 -288.1641,-64.8092 -54.1308,4.6297 -361.4623,-135.3231 -360.7697,-86.9135 17.8538,85.5149 -37.6479,163.3428 26.4178,176.6703 279.6036,53.0366 510.8303,131.3483 786.1552,244.5667 96.60768,39.7268 393.6278,195.0216 476.92767,262.2841 96.39111,77.8334 113.19592,354.2853 186.08381,527.7255 41.3167,98.315 50.19304,229.3724 141.90238,289.5205 36.19437,23.7383 84.0164,13.1528 120.292356,1.3615 190.070584,-61.7813 468.582364,-151.5513 455.650114,-360.1093 -26.40644,-425.8558 -821.96881,-775.9055 -1034.18104,-938.454 z" style="overflow:visible;fill:#22aacc;fill-opacity:0.55294118;fill-rule:evenodd;stroke:none;stroke-width:2.77736163" id="path10620"/> <path id="path8543" style="overflow:visible;fill:#afdde9;fill-opacity:0.55294118;fill-rule:evenodd;stroke:none;stroke-width:2.77736163;filter:url(#filter8557)" d="m -660.46613,-3670.8027 c -83.17685,-63.7111 -1029.72647,-487.5118 -1105.16177,-431.6773 l -79.2386,86.9685 397.3706,164.0694 493.17973,243.2643 c 54.01251,22.2109 307.47511,150.8479 402.99878,234.826 75.33158,66.2266 184.09179,81.4775 220.81944,111.1341 96.39114,77.8334 56.56835,306.5724 98.26706,458.8158 21.66476,79.0988 10.22009,182.7963 78.70458,235.3772 64.167765,49.2666 158.8697528,33.7694 224.891608,8.7447 111.165372,-42.1359 258.364892,-40.3391 240.369842,-249.3616 -9.74014,-113.137 -65.76634,-204.6847 -165.47241,-290.8057 -77.179579,-66.6638 -113.186449,-118.7571 -209.233719,-181.1821 -236.960351,-154.0099 -487.481641,-305.9061 -597.495141,-390.1733 z"/> <path d="m -975.6162,-3812.2718 c -146.9889,-43.3612 -295.3889,-51.7414 -444.0279,-90.1423 -29.7726,-7.6917 -59.5548,-16.5879 -89.3371,-27.2109 -90.51,-22.7113 -191.837,-83.3306 -277.658,-57.8278 -56.068,16.6699 -335.713,-161.0616 -346.274,-81.8603 -1.763,137.1175 -76.2575,273.9505 -14.275,285.0354 367.038,54.0022 753.225,349.0068 1131.463,294.6298 18.491,-79.7837 51.998,-292.9751 40.109,-322.6239 z" style="overflow:visible;fill:#c87137;fill-rule:evenodd;stroke:#2e3436;stroke-width:11.01109314" id="path2160"/> <path d="m -1049.7544,-3686.8539 c -100.843,-71.6507 -79.008,-17.6757 -202.074,-51.4358 -56.13,-15.3981 -70.071,-55.2123 -70.071,-55.2123" style="overflow:visible;fill:none;stroke:#2e3436;stroke-width:5.50554657" id="path5360"/> <path d="m -1394.3712,-3689.8071 c -19.688,-1.4026 11.719,125.7724 -99.484,20.6979 -208.755,-197.2356 -198.497,-86.4442 -198.497,-86.4442" style="overflow:visible;fill:none;stroke:#2e3436;stroke-width:5.50554657" id="path6331"/> <path d="m -1433.7052,-3778.5297 c 16.783,-2.1142 20.313,4.8796 26.314,10.754 12.96,12.6922 1.821,14.7751 -7.711,73.5262 -6.859,42.2909 -11.798,50.0533 -20.733,38.8492 -10.104,-12.6886 -25.51,-24.6743 -22.649,-32.3693 2.861,-7.6988 5.303,-62.2468 6.582,-73.4835 0.726,-6.3764 17.97,-16.6341 18.197,-17.2766 z" style="overflow:visible;fill:#8f5902;fill-opacity:0.75;fill-rule:evenodd" id="path8294"/> <path d="m -1439.0062,-3735.9633 c -22.329,41.8638 24.618,58.7408 17.535,4.8105 -7.082,-53.9304 -29.08,-67.9617 -35.071,-9.6209 -1.997,19.4482 3.024,127.5242 30.334,73.3057 39.214,-77.8296 10.329,-118.1368 10.329,-118.1368" style="overflow:visible;fill:none;stroke:#2e3436;stroke-width:5.50554657" id="path6339"/> <path d="m -1473.3052,-3748.2384 c -51.233,-5.373 -66.418,-95.8293 -96.359,-124.9852 l -29.941,-29.1558" style="overflow:visible;fill:none;stroke:#2e3436;stroke-width:5.50554657" id="path7319"/> <path d="m -1935.5752,-3797.7509 c -51.441,24.2929 -77.407,-51.9198 -110.63,-62.1463 l -33.207,-10.2218" style="overflow:visible;fill:none;stroke:#2e3436;stroke-width:5.50554657" id="path8290"/> <path d="m -1724.5232,-3695.7168 c -49.691,-81.2327 -102.983,-45.8758 -159.932,-130.1406 -25.755,-38.1104 -25.057,-65.2468 -63.607,-110.5135 -30.251,-35.5313 -74.265,-31.0695 -74.265,-31.0695" style="overflow:visible;fill:none;stroke:#2e3436;stroke-width:5.50554657" id="path8297"/> <path d="m -1160.7922,-3635.7287 c -48.056,-41.1761 -64.169,10.3895 -104.501,-0.6745 -40.349,-11.0687 -68.649,1.1639 -68.649,1.1639" style="overflow:visible;fill:none;stroke:#2e3436;stroke-width:5.50554657" id="path9268"/> </g> </g> <g transform="matrix(0.68470379,-0.31015316,0,0.68470379,2651.3464,-2750.9244)" id="layer1-1"> <g id="g5340"> <path id="rect2985" d="m 339.73,81.176 286.54,486.17 -554.29,0 z" style="fill:#ffff00;stroke:#000000;stroke-width:33.29999924;stroke-linecap:round;stroke-linejoin:round"/> <g id="g5336" transform="matrix(1.0875,0,0,1.0875,-30.045,-37.213)"> <path id="path3756" style="fill:none;stroke:#000000;stroke-width:28;marker-end:url(#Arrow2Send)" d="m 338.21,244.42 -46.973,143.27 89.249,-37.579 -39.927,140.92"/> <path id="path5334" style="fill:#000000" d="m 272.1,406.12 54.437,-185.13 12.41,19.944 25.802,-4.1819 -54.146,129.94 z"/> </g> </g> </g> </g> </g> </g> </g> </g> </g> </g> </g> </svg>