<svg id="Layer_1" data-name="Layer 1" xmlns="http://www.w3.org/2000/svg" xmlns:xlink="http://www.w3.org/1999/xlink" viewBox="0 0 49.42 49.42"><defs><style>.cls-1{fill:url(#linear-gradient);}.cls-2{fill:url(#linear-gradient-2);}.cls-3{fill:url(#linear-gradient-3);}.cls-4{fill:#7f8c8d;}.cls-5{fill:#95a5a6;}.cls-6{fill:#bdc3c7;}.cls-7{fill:#606060;}.cls-8{fill:url(#linear-gradient-4);}</style><linearGradient id="linear-gradient" x1="278.19" y1="-376.12" x2="278.19" y2="-437.33" gradientTransform="matrix(0.8, 0, 0, -0.8, -197.85, -300.69)" gradientUnits="userSpaceOnUse"><stop offset="0" stop-color="#8dcaee"/><stop offset="1" stop-color="#b3def6"/></linearGradient><linearGradient id="linear-gradient-2" x1="2008.31" y1="-3241.96" x2="2008.31" y2="-3303.18" gradientTransform="matrix(0.09, 0, 0, -0.09, -169.7, -291.43)" gradientUnits="userSpaceOnUse"><stop offset="0" stop-color="#7fc3ec"/><stop offset="1" stop-color="#9fd4f3"/></linearGradient><linearGradient id="linear-gradient-3" x1="2513.17" y1="-2291.63" x2="2513.17" y2="-2352.85" gradientTransform="matrix(0.09, 0, 0, -0.09, -224.1, -189.02)" gradientUnits="userSpaceOnUse"><stop offset="0" stop-color="#8dcaee"/><stop offset="1" stop-color="#aedbf5"/></linearGradient><linearGradient id="linear-gradient-4" x1="464.02" y1="-2648.01" x2="464.02" y2="-2709.22" gradientTransform="matrix(0.09, 0, 0, -0.09, -3.29, -227.42)" gradientUnits="userSpaceOnUse"><stop offset="0" stop-color="#8dcaee"/><stop offset="1" stop-color="#a4d7f4"/></linearGradient></defs><circle class="cls-1" cx="24.71" cy="24.71" r="24.71"/><path class="cls-2" d="M17,9.72a2.86,2.86,0,0,0-2.53,1.53,2.87,2.87,0,0,0-1.39,1.16,1.85,1.85,0,0,0-.9-.23,1.88,1.88,0,0,0-1.85,1.6H23.41a2.88,2.88,0,0,0-2.85-2.54,3,3,0,0,0-.94.17A2.87,2.87,0,0,0,17,9.72Z" transform="translate(-0.25)"/><path class="cls-3" d="M9.51,23.84A2.86,2.86,0,0,0,7,25.37a2.87,2.87,0,0,0-1.39,1.16,1.85,1.85,0,0,0-.9-.23,1.88,1.88,0,0,0-1.85,1.6H15.9a2.86,2.86,0,0,0-2.84-2.54,3,3,0,0,0-.94.16,2.88,2.88,0,0,0-2.61-1.68Z" transform="translate(-0.25)"/><polygon class="cls-4" points="21.05 17.21 28.15 17.21 28.15 17.21 28.15 38.61 28.15 38.61 21.05 38.61 21.05 38.61 21.05 17.21 21.05 17.21"/><path class="cls-5" d="M10.46,35.85H39.91a1.38,1.38,0,0,1,1.38,1.38h0a1.38,1.38,0,0,1-1.38,1.38H10.46a1.38,1.38,0,0,1-1.38-1.38h0A1.38,1.38,0,0,1,10.46,35.85Z" transform="translate(-0.25)"/><path class="cls-4" d="M10.46,38.16H39.91a1.38,1.38,0,0,1,1.38,1.38h0a1.38,1.38,0,0,1-1.38,1.38H10.46a1.38,1.38,0,0,1-1.38-1.38h0A1.38,1.38,0,0,1,10.46,38.16Z" transform="translate(-0.25)"/><path class="cls-4" d="M22.31,12.61v4.61h5.08V12.61Z" transform="translate(-0.25)"/><path class="cls-4" d="M26.73,10.8l1.87,1.93H21.1l3.75-3.85Z" transform="translate(-0.25)"/><polygon class="cls-6" points="23.36 31.11 25.83 31.11 25.83 31.11 25.83 35.19 25.83 35.19 23.36 35.19 23.36 35.19 23.36 31.11 23.36 31.11"/><path class="cls-5" d="M23.61,31.11v4.08h2.48v-.32H24V31.11Z" transform="translate(-0.25)"/><circle class="cls-6" cx="24.65" cy="27.85" r="1.38"/><path class="cls-5" d="M24.18,26.68a1.36,1.36,0,0,0-.65,1.17,1.37,1.37,0,0,0,2.45.86,1.34,1.34,0,0,1-.72.21,1.38,1.38,0,0,1-1.38-1.38,1.34,1.34,0,0,1,.3-.86Z" transform="translate(-0.25)"/><circle class="cls-6" cx="24.65" cy="23.66" r="1.38"/><path class="cls-5" d="M24.18,22.49a1.36,1.36,0,0,0-.65,1.17,1.37,1.37,0,0,0,2.45.86,1.43,1.43,0,0,1-.72.21,1.38,1.38,0,0,1-1.38-1.38,1.33,1.33,0,0,1,.3-.86Z" transform="translate(-0.25)"/><circle class="cls-6" cx="24.65" cy="19.47" r="1.38"/><path class="cls-5" d="M24.18,18.3a1.36,1.36,0,0,0-.65,1.17,1.38,1.38,0,0,0,1.38,1.38A1.43,1.43,0,0,0,26,20.33a1.42,1.42,0,0,1-.72.2,1.37,1.37,0,0,1-1.38-1.38,1.32,1.32,0,0,1,.3-.85Z" transform="translate(-0.25)"/><circle class="cls-6" cx="24.6" cy="14.91" r="1.38"/><path class="cls-7" d="M33.57,5.85l-8.29,8.29a.88.88,0,0,0-.86,0L16.13,5.85l-.34.34,8.29,8.3a.86.86,0,0,0,0,.85l-8.29,8.29.34.35,8.29-8.3a.88.88,0,0,0,.86,0L33.57,24l.34-.35-8.29-8.29a.86.86,0,0,0,0-.85l8.29-8.3-.34-.34Zm.44.44-7.25,7.26,1.69,1.69L35.71,8,34,6.29ZM17.92,4.06,16.23,5.75,23.48,13l1.7-1.7Zm8.3,12.76-1.7,1.7,7.26,7.25,1.69-1.7-7.25-7.25Zm-5-2.23L14,21.84l1.7,1.69,7.25-7.25-1.69-1.69Z" transform="translate(-0.25)"/><path class="cls-8" d="M40,18.55a2.88,2.88,0,0,0-2.53,1.52A2.93,2.93,0,0,0,36,21.23a1.84,1.84,0,0,0-.89-.23,1.88,1.88,0,0,0-1.86,1.6H46.35a2.87,2.87,0,0,0-2.85-2.53,2.73,2.73,0,0,0-.94.16A2.86,2.86,0,0,0,40,18.55Z" transform="translate(-0.25)"/></svg>