<?xml version="1.0" encoding="UTF-8"?>
<svg width="126.44mm" height="126.44mm" version="1.1" viewBox="0 0 448 447.99999" xmlns="http://www.w3.org/2000/svg">
 <defs>
  <linearGradient id="e" x1="401" x2="401" y1="337.36" y2="781.36" gradientUnits="userSpaceOnUse">
   <stop stop-color="#87cbf8" offset="0"/>
   <stop stop-color="#afdfff" offset="1"/>
  </linearGradient>
  <linearGradient id="f" x1="401" x2="401" y1="337.36" y2="781.36" gradientTransform="matrix(.11612 0 0 .11612 214.36 512.57)" gradientUnits="userSpaceOnUse">
   <stop stop-color="#87cbf8" offset="0"/>
   <stop stop-color="#aadcfe" offset="1"/>
  </linearGradient>
  <linearGradient id="g" x1="401" x2="401" y1="337.36" y2="781.36" gradientTransform="matrix(.11612 0 0 .11612 490.36 464.57)" gradientUnits="userSpaceOnUse">
   <stop stop-color="#87cbf8" offset="0"/>
   <stop stop-color="#a0d8fc" offset="1"/>
  </linearGradient>
  <linearGradient id="h" x1="401" x2="401" y1="337.36" y2="781.36" gradientTransform="matrix(.11612 0 0 .11612 282.36 384.57)" gradientUnits="userSpaceOnUse">
   <stop stop-color="#76c5f9" offset="0"/>
   <stop stop-color="#9bd5fb" offset="1"/>
  </linearGradient>
 </defs>
 <g transform="translate(-177 -335.36)">
  <circle cx="401" cy="559.36" r="224" fill="url(#e)"/>
  <path d="m328.92 423.51a26.01 26.01 0 0 0 -22.971 13.84 26.01 26.01 0 0 0 -12.549 10.512 16.994 16.994 0 0 0 -8.1445 -2.0781 16.994 16.994 0 0 0 -16.793 14.49h118.44a26.01 26.01 0 0 0 -25.812 -22.975 26.01 26.01 0 0 0 -8.5254 1.4688 26.01 26.01 0 0 0 -23.648 -15.258z" fill="url(#h)"/>
  <path d="m260.92 551.51a26.01 26.01 0 0 0 -22.971 13.84 26.01 26.01 0 0 0 -12.549 10.512 16.994 16.994 0 0 0 -8.1445 -2.0781 16.994 16.994 0 0 0 -16.793 14.49h118.44a26.01 26.01 0 0 0 -25.812 -22.975 26.01 26.01 0 0 0 -8.5254 1.4688 26.01 26.01 0 0 0 -23.648 -15.258z" fill="url(#f)"/>
  <rect x="367.8" y="491.36" width="64.398" height="194" ry="7.4765e-6" fill="#7f8c8d"/>
  <rect x="257" y="660.36" width="292" height="25" ry="12.5" fill="#95a5a6"/>
  <rect x="257" y="681.36" width="292" height="25" ry="12.5" fill="#7f8c8d"/>
  <path d="m376.99 449.64v41.84h46.012v-41.84h-46.012z" fill="#7f8c8d"/>
  <path transform="matrix(.26997 -.2768 .4676 .15981 144.87 423.94)" d="m226.66 451.12-31.501 54.562-31.501-54.562-31.501-54.562h126.01z" fill="#7f8c8d"/>
  <rect x="388.8" y="617.36" width="22.398" height="37" ry="1.4259e-6" fill="#bdc3c7"/>
  <path d="m388.8 617.36v37h22.398v-2.8281h-19.217v-34.172h-3.1816z" fill="#95a5a6"/>
  <circle cx="400.5" cy="587.86" r="12.5" fill="#bdc3c7"/>
  <path d="m393.92 577.24a12.5 12.5 0 0 0 -5.9219 10.619 12.5 12.5 0 0 0 12.5 12.5 12.5 12.5 0 0 0 9.7578 -4.707 12.5 12.5 0 0 1 -6.5762 1.8789 12.5 12.5 0 0 1 -12.5 -12.5 12.5 12.5 0 0 1 2.7402 -7.791z" fill="#95a5a6"/>
  <g transform="translate(0 -38.007)">
   <circle cx="400.5" cy="587.86" r="12.5" fill="#bdc3c7"/>
   <path d="m393.92 577.24a12.5 12.5 0 0 0 -5.9219 10.619 12.5 12.5 0 0 0 12.5 12.5 12.5 12.5 0 0 0 9.7578 -4.707 12.5 12.5 0 0 1 -6.5762 1.8789 12.5 12.5 0 0 1 -12.5 -12.5 12.5 12.5 0 0 1 2.7402 -7.791z" fill="#95a5a6"/>
  </g>
  <g transform="translate(0 -76.014)">
   <circle cx="400.5" cy="587.86" r="12.5" fill="#bdc3c7"/>
   <path d="m393.92 577.24a12.5 12.5 0 0 0 -5.9219 10.619 12.5 12.5 0 0 0 12.5 12.5 12.5 12.5 0 0 0 9.7578 -4.707 12.5 12.5 0 0 1 -6.5762 1.8789 12.5 12.5 0 0 1 -12.5 -12.5 12.5 12.5 0 0 1 2.7402 -7.791z" fill="#95a5a6"/>
  </g>
  <circle cx="400" cy="470.56" r="12.5" fill="#bdc3c7"/>
  <path d="m479.06 388.4-75.174 75.174a8 8 0 0 0 -7.7588 3e-3l-75.177-75.177-3.1102 3.1102 75.173 75.173a8 8 0 0 0 3e-3 7.7616l-75.176 75.176 3.1102 3.1102 75.173-75.173a8 8 0 0 0 7.7616 -3e-3l75.176 75.176 3.1102-3.1102-75.173-75.173a8 8 0 0 0 -4e-3 -7.7602l75.177-75.177-3.1102-3.1102zm3.9996 3.9996-65.761 65.761 15.374 15.374 65.761-65.761-15.374-15.374zm-145.85-20.263-15.374 15.374 65.761 65.761 15.374-15.374-65.761-65.761zm75.196 115.72-15.374 15.374 65.761 65.761 15.374-15.374-65.761-65.761zm-45.073-20.263-65.761 65.761 15.374 15.374 65.761-65.761-15.374-15.374z" fill="#5f5f5f"/>
  <path d="m536.92 503.51a26.01 26.01 0 0 0 -22.971 13.84 26.01 26.01 0 0 0 -12.549 10.512 16.994 16.994 0 0 0 -8.1445 -2.0781 16.994 16.994 0 0 0 -16.793 14.49h118.44a26.01 26.01 0 0 0 -25.812 -22.975 26.01 26.01 0 0 0 -8.5254 1.4688 26.01 26.01 0 0 0 -23.648 -15.258z" fill="url(#g)"/>
 </g>
</svg>
